<svg xmlns="http://www.w3.org/2000/svg" xmlns:xlink="http://www.w3.org/1999/xlink" viewBox="0 0 445.14 510.26"><defs><style>.a{opacity:0.2;}.b{fill:#3075b0;}.b,.g,.m,.t{stroke:#1c1c1c;stroke-width:3px;}.b,.g,.m,.r,.t{stroke-miterlimit:10;}.c{mask:url(#a);}.d{fill:#1d5e93;}.e{fill:#28282b;}.f{fill:#1c1c1c;}.g,.r{fill:none;}.h{fill:#343438;}.i{fill:#2b2b2b;}.j{fill:#404045;}.k{fill:#323233;}.l{mask:url(#c);}.m,.u{fill:#59a3eb;}.n{fill:#68b4f2;}.o{mask:url(#d);}.p{fill:#488dcb;}.q{mask:url(#f);}.r{stroke:#e5e3e5;stroke-width:5px;}.s{mask:url(#g);}.t{fill:#338ac7;}.v{mask:url(#i);}.w{fill:#e5e3e5;}.x{filter:url(#b);}.y{filter:url(#h);}.z{filter:url(#e);}</style><filter id="b" filterUnits="userSpaceOnUse" color-interpolation-filters="sRGB"><feColorMatrix values="-1 0 0 0 1 0 -1 0 0 1 0 0 -1 0 1 0 0 0 1 0"/></filter><mask id="a" x="240.24" y="381.29" width="56.11" height="60.5" maskUnits="userSpaceOnUse"><g class="x"><ellipse cx="268.29" cy="403.87" rx="28.72" ry="19.88" transform="translate(-108.49 98.7) rotate(-17.4)"/></g></mask><mask id="c" x="73.16" y="379.68" width="60.51" height="62.11" maskUnits="userSpaceOnUse"><g class="x"><ellipse cx="103.42" cy="403.2" rx="21.95" ry="31.4" transform="translate(-309.12 347.74) rotate(-67.96)"/></g></mask><filter id="e" x="57.1" y="143.77" width="251.64" height="270.23" filterUnits="userSpaceOnUse" color-interpolation-filters="sRGB"><feFlood flood-color="#fff" result="bg"/><feBlend in="SourceGraphic" in2="bg"/></filter><mask id="d" x="57.1" y="143.77" width="251.64" height="270.23" maskUnits="userSpaceOnUse"><g class="z"><path d="M108,150H249.18a57.18,57.18,0,0,1,57.18,57.18V335.74a57.18,57.18,0,0,1-57.18,57.18H108a48,48,0,0,1-48-48V198a48,48,0,0,1,48-48Z" transform="translate(442.47 71.39) rotate(86.36)"/></g></mask><mask id="f" x="84.86" y="195" width="195.52" height="179.13" maskUnits="userSpaceOnUse"><g class="x"><rect x="117.92" y="165.27" width="129.4" height="194.32" rx="53.92" ry="53.92" transform="translate(432.93 63.51) rotate(86.36)"/></g></mask><filter id="h" x="105.45" y="117.15" width="144.64" height="79.42" filterUnits="userSpaceOnUse" color-interpolation-filters="sRGB"><feFlood flood-color="#fff" result="bg"/><feBlend in="SourceGraphic" in2="bg"/></filter><mask id="g" x="105.45" y="117.15" width="144.64" height="79.42" maskUnits="userSpaceOnUse"><g class="y"><rect x="105.79" y="118.93" width="142.78" height="59.66" rx="19" ry="19" transform="translate(5.18 -5.97) rotate(1.96)"/></g></mask><mask id="i" x="75.95" y="52.21" width="223.8" height="113.64" maskUnits="userSpaceOnUse"><g class="x"><path d="M101.66,72.28H273a23.89,23.89,0,0,1,23.89,23.89v46.53a16,16,0,0,1-16,16H93.77a16,16,0,0,1-16-16V96.17A23.89,23.89,0,0,1,101.66,72.28Z" transform="translate(9.47 -14.11) rotate(4.42)"/></g></mask></defs><title>MixBot_DevBot_posed1</title><ellipse class="a" cx="188.31" cy="492.28" rx="147.31" ry="17.98"/><path class="b" d="M262.24,439.56a6.76,6.76,0,0,0,7.51,6.7c12.63-1.34,17.56-11.68,17.56-20.12l-5.5-49.34H272a9.71,9.71,0,0,0-9.71,9.71Z"/><g class="c"><path class="d" d="M269,441.79a2.26,2.26,0,0,1-2.27-2.24v-53a5.22,5.22,0,0,1,5.21-5.21h5.83l5,45.07c-.08,6.51-3.66,14.36-13.53,15.41Z"/></g><path class="e" d="M255.71,379.1c9.73,0,17.63,25.47,17.63,56.88s-7.89,56.88-17.63,56.88H116.43V379.1Z"/><path class="f" d="M136.75,436H273.33v.37s0,.07,0,.11v.14s0,.06,0,.09v.17s0,.05,0,.08v0s0,.06,0,.08v0s0,.07,0,.1v0s0,0,0,.07v0s0,0,0,.06v0s0,.07,0,.1,0,0,0,0v.07s0,0,0,0,0,0,0,.07v0s0,.07,0,.1v.1s0,0,0,.05v.05s0,0,0,.06v0s0,.08,0,.13v0s0,0,0,.06,0,0,0,0v.07h0v.18s0,.05,0,.08v0c0,.12,0,.23,0,.35h0q-.06,3.29-.23,6.47c-.65,12.23-2.51,23.12-5.17,31.36-2.78,8.61-6.43,14.31-10.49,15.58l-.11,0h0l-.08,0h0l-.08,0H257l-.07,0H116.43c9.72,0,17.61-25.41,17.63-56.77q1.33-.11,2.7-.11"/><path class="g" d="M255.71,379.1c9.73,0,17.63,25.47,17.63,56.88s-7.89,56.88-17.63,56.88H116.43V379.1Z"/><path class="h" d="M98.81,436c0,31.41,7.89,56.88,17.63,56.88s17.63-25.47,17.63-56.88-7.89-56.88-17.63-56.88S98.81,404.56,98.81,436"/><path class="i" d="M134.06,436.08c0,31.37-7.9,56.77-17.63,56.77h-1.55l-.09,0h-.21l-.09,0h-.21l-.12,0H114l-.09,0h-.27l0,0h-.27l0,0H113l-.06,0h-.22l-.13-.09h0l0,0h0l0,0h0l0,0h0l0,0h0c-2.31-1.7-4.45-4.86-6.32-9.17h0v-.06h0l-.2-.46a32.42,32.42,0,0,1,1.26-27.91c1.62,9.44,4.74,15.83,8.32,15.83,5.25,0,9.5-13.72,9.5-30.65,0-.31,0-.62,0-.93a33.13,33.13,0,0,1,9-2"/><path class="g" d="M98.81,436c0,31.41,7.89,56.88,17.63,56.88s17.63-25.47,17.63-56.88-7.89-56.88-17.63-56.88S98.81,404.56,98.81,436"/><path class="j" d="M106,439c0,16.93,4.25,30.65,9.5,30.65S125,455.94,125,439s-4.25-30.65-9.5-30.65S106,422.08,106,439"/><path class="k" d="M111.41,413.47q2.12.37,4.28.59c2.77,3,4.74,11.06,4.74,20.48,0,12-3.22,21.78-7.2,21.78-3.75,0-6.84-8.68-7.17-19.77a73.45,73.45,0,0,1,2.75-19.19,9.85,9.85,0,0,1,2.6-3.88"/><path class="g" d="M106,439c0,16.93,4.25,30.65,9.5,30.65S125,455.94,125,439s-4.25-30.65-9.5-30.65S106,422.08,106,439"/><path class="b" d="M114.37,439.56a6.76,6.76,0,0,1-7.51,6.7c-12.63-1.34-17.56-11.68-17.56-20.12l5.5-49.34h9.85a9.71,9.71,0,0,1,9.71,9.71Z"/><g class="l"><path class="d" d="M107.6,441.79h-.26c-9.87-1-13.45-8.9-13.53-15.41l5-45.07h5.83a5.22,5.22,0,0,1,5.21,5.21v53A2.26,2.26,0,0,1,107.6,441.79Z"/></g><path class="m" d="M5.48,292.51c-10.69,63.28.89,118,25.86,122.23s63.7-225,38.72-229.17S16.18,229.23,5.48,292.51"/><path class="n" d="M53.09,253.57c-7.61.81-16.21,8.35-23.59,20.69-7.83,13.11-13.79,30.57-16.77,49.18C6.4,363,15.37,397.73,32.33,399.36h.09c2.58-.27,9.5-9.44,17.2-42.19,5.78-24.6,9.89-54.17,10.47-75.33.74-27-4.34-28.27-4.39-28.28A13,13,0,0,0,53.09,253.57Z"/><path class="m" d="M395.3,241.24C437,290,455.22,342.9,436,359.37S265.66,199.19,284.91,182.73s68.67,9.73,110.39,58.51"/><path class="n" d="M332.06,230.2s-3.74,3.76,11.1,27.19c11.62,18.35,30.69,42.29,48.57,61,23.81,24.89,34.56,29.4,36.92,28.3l.08,0c13.67-10.2,3.09-45.48-23.11-77-12.34-14.86-26.62-27.17-40.23-34.68-12.81-7.07-24.15-9.28-31.09-6.06A12.69,12.69,0,0,0,332.06,230.2Z"/><circle class="f" cx="283.99" cy="199.58" r="39" transform="translate(-12.1 18.43) rotate(-3.64)"/><ellipse class="h" cx="291.84" cy="187.29" rx="15.91" ry="19.33" transform="translate(-54.24 165.43) rotate(-29.08)"/><circle class="f" cx="74.15" cy="212.93" r="39" transform="translate(-13.37 5.14) rotate(-3.64)"/><ellipse class="h" cx="62.98" cy="200.64" rx="19.33" ry="15.91" transform="translate(-146.7 184.63) rotate(-68.2)"/><rect class="m" x="60.66" y="156.85" width="246.85" height="257.14" rx="50" ry="50" transform="translate(-17.75 12.26) rotate(-3.64)"/><g class="o"><path class="p" d="M115.75,414a45.56,45.56,0,0,1-45.36-42.61l-10-156.83a45.5,45.5,0,0,1,42.52-48.3l146.56-9.32c1-.06,2-.09,2.94-.09a45.56,45.56,0,0,1,45.36,42.61l10,156.82a45.55,45.55,0,0,1-42.52,48.3L118.69,413.9C117.71,414,116.72,414,115.75,414Z"/></g><path class="n" d="M121.56,170.57H245.2a35.35,35.35,0,0,1,35.35,35.35V335.56A42.42,42.42,0,0,1,238.13,378H128.62a42.42,42.42,0,0,1-42.42-42.42V205.93a35.35,35.35,0,0,1,35.35-35.35Z" transform="translate(-17.05 12.2) rotate(-3.64)"/><rect class="f" x="94.31" y="234.35" width="181.74" height="136.6" rx="40" ry="40" transform="translate(-18.84 12.37) rotate(-3.64)"/><g class="q"><rect class="h" x="94.31" y="234.35" width="181.74" height="136.6" rx="40" ry="40" transform="translate(-18.84 12.37) rotate(-3.64)"/></g><path class="r" d="M96.32,317.39s8,.19,15.35-9.09,12.22-17.41,21.7-18,15.68,8.57,20.39,19.62,10.44,30.63,30.53,29.35c19.81-1.26,25.94-42.73,25.94-42.73s2.85-25.25,17.67-26.19c14.37-.91,18.93,6.13,28.42,15.14S266.7,298,273.42,300.3"/><rect class="g" x="118.68" y="213.58" width="133" height="178.14" rx="38.5" ry="38.5" transform="translate(475.47 98.63) rotate(86.36)"/><rect class="f" x="106.72" y="133.6" width="142.78" height="59.66" rx="19" ry="19" transform="translate(-10.02 11.64) rotate(-3.64)"/><g class="s"><rect class="h" x="106.72" y="133.6" width="142.78" height="59.66" rx="19" ry="19" transform="translate(-10.02 11.64) rotate(-3.64)"/></g><rect class="g" x="106.72" y="133.6" width="142.78" height="59.66" rx="19" ry="19" transform="translate(-10.02 11.64) rotate(-3.64)"/><path class="t" d="M34.77,30.23H51.23a0,0,0,0,1,0,0v97.85a0,0,0,0,1,0,0H34.77a16,16,0,0,1-16-16V46.23a16,16,0,0,1,16-16Z" transform="translate(6.21 -2.46) rotate(4.42)"/><path class="u" d="M8.91,55.48H67.47a0,0,0,0,1,0,0V68A10.67,10.67,0,0,1,56.8,78.63H18.66a9.75,9.75,0,0,1-9.75-9.75V55.48a0,0,0,0,1,0,0Z" transform="translate(107.99 34.15) rotate(94.42)"/><path class="t" d="M343.15,54.09H359.6a0,0,0,0,1,0,0v97.85a0,0,0,0,1,0,0H343.15a16,16,0,0,1-16-16V70.09A16,16,0,0,1,343.15,54.09Z" transform="translate(677.78 232.21) rotate(-175.58)"/><path class="u" d="M322.55,79h38.14a10.67,10.67,0,0,1,10.67,10.67v12.48a0,0,0,0,1,0,0H312.8a0,0,0,0,1,0,0V88.74A9.75,9.75,0,0,1,322.55,79Z" transform="translate(458.77 -243.51) rotate(94.42)"/><rect class="m" x="48.69" y="9.75" width="281.4" height="158.62" rx="32" ry="32" transform="translate(7.43 -14.34) rotate(4.42)"/><rect class="n" x="70.42" y="30.59" width="229.2" height="99.6" rx="22.19" ry="22.19" transform="matrix(1, 0.08, -0.08, 1, 6.75, -14.03)"/><rect class="f" x="78.77" y="59.35" width="219.15" height="86.43" rx="16" ry="16" transform="matrix(1, 0.08, -0.08, 1, 8.47, -14.22)"/><g class="v"><rect class="h" x="78.77" y="59.35" width="219.15" height="86.43" rx="16" ry="16" transform="matrix(1, 0.08, -0.08, 1, 8.47, -14.22)"/></g><rect class="w" x="144.59" y="114.71" width="7.8" height="7.8" transform="translate(9.59 -11.1) rotate(4.42)"/><rect class="w" x="169.04" y="116.6" width="7.8" height="7.8" transform="translate(9.81 -12.98) rotate(4.42)"/><rect class="w" x="193.49" y="118.49" width="7.8" height="7.8" transform="translate(10.03 -14.86) rotate(4.42)"/><rect class="w" x="217.93" y="120.38" width="7.8" height="7.8" transform="translate(10.25 -16.74) rotate(4.42)"/><polygon class="w" points="99.97 100.79 113.1 79.04 119.68 79.55 106.95 101.33 99.97 100.79"/><polygon class="w" points="129.27 103.06 119.64 79.54 113.06 79.04 122.29 102.52 129.27 103.06"/><polygon class="w" points="244.08 111.94 257.22 90.19 263.8 90.7 251.07 112.48 244.08 111.94"/><polygon class="w" points="273.39 114.21 263.75 90.69 257.18 90.19 266.4 113.67 273.39 114.21"/><rect class="g" x="78.77" y="59.35" width="219.15" height="86.43" rx="16" ry="16" transform="matrix(1, 0.08, -0.08, 1, 8.47, -14.22)"/></svg>